<svg width="46" height="46" viewBox="0 0 46 46" fill="none" xmlns="http://www.w3.org/2000/svg">
<g id="bxs:leaf">
<path id="Vector" d="M45.5001 3.67249L45.2301 0.837494L42.5301 1.73749C37.9028 3.34522 32.9614 3.83858 28.1076 3.17749C23.0072 2.38597 17.7866 3.08933 13.0776 5.20249C10.5812 6.2655 8.39027 7.93605 6.70439 10.0621C5.01852 12.1881 3.8912 14.702 3.42507 17.375C2.82068 20.828 3.12304 24.3789 4.30257 27.68C5.06207 25.9657 5.94958 24.311 6.95757 22.73C9.24403 19.3659 12.4122 16.6959 16.1151 15.0125C19.6823 13.3838 23.5814 12.6132 27.5001 12.7625C23.7696 13.3329 20.1988 14.6738 17.0151 16.7C15.4794 17.6649 14.073 18.8217 12.8301 20.1425C11.6413 21.4626 10.5932 22.9029 9.70258 24.44C8.02977 27.653 6.83948 31.095 6.17007 34.655C5.44853 38.2265 5.05688 41.8568 5.00007 45.5H9.50007C9.71157 42.2326 10.1552 38.9844 10.8276 35.78C13.9493 37.4657 17.4501 38.3254 20.9976 38.2775C24.3061 38.2752 27.5807 37.6096 30.6276 36.32C47.7501 29.0075 45.5001 4.68499 45.5001 3.67249Z" fill="#6C93DE"/>
</g>
</svg>
