<svg width="20" height="20" viewBox="0 0 20 20" fill="none" xmlns="http://www.w3.org/2000/svg">
<path id="Combined shape 15714" fill-rule="evenodd" clip-rule="evenodd" d="M9.99994 -0.00146484C4.4862 -0.00146484 0 4.48399 0 9.99852C0 15.5125 4.4862 19.998 9.99994 19.998C15.5138 19.998 20 15.5125 20 9.99852C20 4.48399 15.5138 -0.00146484 9.99994 -0.00146484ZM14.8076 10.7673H10.7692V14.998C10.7692 15.4232 10.4246 15.7679 9.99994 15.7679C9.57538 15.7679 9.2308 15.4232 9.2308 14.998V10.7673H5.1923C4.76772 10.7673 4.42301 10.4227 4.42301 9.99852C4.42301 9.57325 4.76772 9.2297 5.1923 9.2297H9.2308V5.3824C9.2308 4.95821 9.57538 4.61358 9.99994 4.61358C10.4246 4.61358 10.7692 4.95821 10.7692 5.3824V9.2297H14.8076C15.2323 9.2297 15.5769 9.57325 15.5769 9.99852C15.5769 10.4227 15.2323 10.7673 14.8076 10.7673Z" fill="#3FDBB1"/>
</svg>
