<svg width="43" height="43" viewBox="0 0 43 43" fill="none" xmlns="http://www.w3.org/2000/svg">
<g id="icon-park-outline:apple-one">
<g id="Group">
<path id="Vector" d="M22.5307 37.7717C24.747 37.7717 25.6586 38.966 26.8465 39.2313C28.0344 39.4975 29.0317 39.5704 30.0527 39.121C32.0757 38.2294 33.3082 37.1682 34.8042 35.5829C37.5775 32.6437 38.9404 28.6042 38.9404 23.1936C38.9404 17.783 37.4817 14.986 35.2327 13.1573C32.9846 11.3285 31.6809 10.9784 28.9624 11.3285C26.2439 11.6786 24.7634 14.5995 22.538 14.5995C20.3136 14.5995 17.6015 11.7196 15.243 11.3285C12.8837 10.9365 11.591 11.3285 9.54889 13.1573C7.5068 14.986 6.12109 17.834 6.12109 23.1945C6.12109 28.5532 7.53597 32.5261 10.3083 35.4653C11.8034 37.0506 12.9858 38.2303 15.0078 39.121C16.0289 39.5713 17.0855 39.4984 18.2314 39.2322C19.3783 38.9678 20.2899 37.7736 22.5307 37.7736V37.7717Z" stroke="#6C93DE" stroke-width="2.46681"/>
<path id="Vector_2" d="M22.5389 14.5995C23.2545 7.54877 26.294 4.02252 31.6563 4.02252C32.1486 5.50668 32.2762 6.94253 32.0373 8.33097C31.9252 8.991 31.5742 9.93182 30.9862 11.1534M13.623 24.0788C13.3705 25.3058 13.3705 26.5685 13.623 27.8685C13.8746 29.1676 14.4116 30.1704 15.2339 30.8769" stroke="#6C93DE" stroke-width="2.46681" stroke-linecap="round"/>
</g>
</g>
</svg>
