<svg width="380" height="380" viewBox="0 0 380 380" fill="none" xmlns="http://www.w3.org/2000/svg">
<g id="Instagram" filter="url(#filter0_dd_209_478)">
<g id="Group 597">
<circle id="Ellipse 2" cx="190" cy="175" r="40" fill="white"/>
<g id="Group">
<path id="Vector" d="M200.778 148.333H179.221C170.46 148.333 163.333 155.461 163.333 164.222V185.779C163.333 194.539 170.46 201.667 179.221 201.667H200.778C209.539 201.667 216.666 194.539 216.666 185.779V164.222C216.666 155.461 209.539 148.333 200.778 148.333ZM211.301 185.779C211.301 191.59 206.59 196.301 200.778 196.301H179.221C173.41 196.301 168.698 191.59 168.698 185.779V164.222C168.698 158.41 173.41 153.699 179.221 153.699H200.778C206.59 153.699 211.301 158.41 211.301 164.222V185.779Z" fill="url(#paint0_linear_209_478)"/>
<path id="Vector_2" d="M190 161.206C182.394 161.206 176.206 167.394 176.206 175C176.206 182.606 182.394 188.794 190 188.794C197.606 188.794 203.794 182.606 203.794 175C203.794 167.394 197.606 161.206 190 161.206ZM190 183.429C185.345 183.429 181.571 179.655 181.571 175C181.571 170.345 185.345 166.571 190 166.571C194.655 166.571 198.429 170.345 198.429 175C198.429 179.655 194.655 183.429 190 183.429Z" fill="url(#paint1_linear_209_478)"/>
<path id="Vector_3" d="M203.82 164.615C205.645 164.615 207.125 163.135 207.125 161.31C207.125 159.484 205.645 158.004 203.82 158.004C201.994 158.004 200.515 159.484 200.515 161.31C200.515 163.135 201.994 164.615 203.82 164.615Z" fill="url(#paint2_linear_209_478)"/>
</g>
</g>
</g>
<defs>
<filter id="filter0_dd_209_478" x="0" y="0" width="380" height="380" filterUnits="userSpaceOnUse" color-interpolation-filters="sRGB">
<feFlood flood-opacity="0" result="BackgroundImageFix"/>
<feColorMatrix in="SourceAlpha" type="matrix" values="0 0 0 0 0 0 0 0 0 0 0 0 0 0 0 0 0 0 127 0" result="hardAlpha"/>
<feOffset dy="15"/>
<feGaussianBlur stdDeviation="75"/>
<feComposite in2="hardAlpha" operator="out"/>
<feColorMatrix type="matrix" values="0 0 0 0 0.345098 0 0 0 0 0.631373 0 0 0 0 0.686275 0 0 0 0.5 0"/>
<feBlend mode="normal" in2="BackgroundImageFix" result="effect1_dropShadow_209_478"/>
<feColorMatrix in="SourceAlpha" type="matrix" values="0 0 0 0 0 0 0 0 0 0 0 0 0 0 0 0 0 0 127 0" result="hardAlpha"/>
<feOffset dy="15"/>
<feGaussianBlur stdDeviation="75"/>
<feComposite in2="hardAlpha" operator="out"/>
<feColorMatrix type="matrix" values="0 0 0 0 0.345098 0 0 0 0 0.631373 0 0 0 0 0.686275 0 0 0 0.5 0"/>
<feBlend mode="normal" in2="effect1_dropShadow_209_478" result="effect2_dropShadow_209_478"/>
<feBlend mode="normal" in="SourceGraphic" in2="effect2_dropShadow_209_478" result="shape"/>
</filter>
<linearGradient id="paint0_linear_209_478" x1="190" y1="201.512" x2="190" y2="148.748" gradientUnits="userSpaceOnUse">
<stop stop-color="#E09B3D"/>
<stop offset="0.3" stop-color="#C74C4D"/>
<stop offset="0.6" stop-color="#C21975"/>
<stop offset="1" stop-color="#7024C4"/>
</linearGradient>
<linearGradient id="paint1_linear_209_478" x1="190" y1="201.511" x2="190" y2="148.748" gradientUnits="userSpaceOnUse">
<stop stop-color="#E09B3D"/>
<stop offset="0.3" stop-color="#C74C4D"/>
<stop offset="0.6" stop-color="#C21975"/>
<stop offset="1" stop-color="#7024C4"/>
</linearGradient>
<linearGradient id="paint2_linear_209_478" x1="203.82" y1="201.511" x2="203.82" y2="148.748" gradientUnits="userSpaceOnUse">
<stop stop-color="#E09B3D"/>
<stop offset="0.3" stop-color="#C74C4D"/>
<stop offset="0.6" stop-color="#C21975"/>
<stop offset="1" stop-color="#7024C4"/>
</linearGradient>
</defs>
</svg>
