<svg width="68" height="68" viewBox="0 0 68 68" fill="none" xmlns="http://www.w3.org/2000/svg">
<g id="ph:tree-duotone">
<path id="Vector" opacity="0.2" d="M61.229 34.0772C61.2449 37.1025 60.4363 40.0749 58.8899 42.6752C57.3436 45.2755 55.1181 47.4054 52.4524 48.836C49.7867 50.2667 46.7816 50.944 43.7599 50.7953C40.7382 50.6465 37.8142 49.6773 35.3019 47.9918C34.9536 47.7632 34.546 47.6413 34.1293 47.6413C33.7126 47.6413 33.305 47.7632 32.9567 47.9918C31.0442 49.2945 28.8815 50.1848 26.6062 50.6063C24.3308 51.0277 21.9927 50.9711 19.7405 50.4398C17.4883 49.9086 15.3713 48.9145 13.5241 47.5208C11.6769 46.127 10.14 44.364 9.01114 42.344C7.88227 40.3241 7.18614 38.0912 6.96703 35.7876C6.74791 33.484 7.0106 31.16 7.73839 28.9634C8.46619 26.7668 9.64315 24.7457 11.1944 23.0287C12.7457 21.3117 14.6373 19.9362 16.749 18.99C17.2127 18.7568 17.5811 18.37 17.7913 17.8955C19.1422 14.6774 21.4134 11.9298 24.32 9.99762C27.2266 8.06543 30.6391 7.03467 34.1293 7.03467C37.6195 7.03467 41.032 8.06543 43.9386 9.99762C46.8452 11.9298 49.1164 14.6774 50.4673 17.8955C50.6775 18.37 51.0459 18.7568 51.5096 18.99C54.4014 20.3139 56.8535 22.4383 58.5759 25.112C60.2984 27.7857 61.219 30.8967 61.229 34.0772Z" fill="#6C93DE"/>
<path id="Vector_2" d="M52.3956 17.0878C50.8876 13.4873 48.3492 10.4127 45.0993 8.25043C41.8494 6.08813 38.0329 4.93451 34.1294 4.93451C30.2259 4.93451 26.4094 6.08813 23.1595 8.25043C19.9096 10.4127 17.3712 13.4873 15.8632 17.0878C12.6185 18.5914 9.86875 20.9874 7.93538 23.9959C6.00201 27.0044 4.96485 30.5011 4.94513 34.0772C4.91907 44.1874 13.1271 52.63 23.2114 52.8906C26.2716 52.9738 29.3053 52.3026 32.0448 50.9363V61.229C32.0448 61.7818 32.2644 62.3121 32.6554 62.703C33.0463 63.0939 33.5765 63.3135 34.1294 63.3135C34.6823 63.3135 35.2125 63.0939 35.6034 62.703C35.9944 62.3121 36.214 61.7818 36.214 61.229V50.9363C38.8056 52.2219 41.6594 52.8908 44.5523 52.8906H45.0474C55.1316 52.63 63.3397 44.1874 63.3137 34.0772C63.2939 30.5011 62.2568 27.0044 60.3234 23.9959C58.39 20.9874 55.6403 18.5914 52.3956 17.0878ZM44.9432 48.7214C41.9269 48.7996 38.9601 47.9441 36.4485 46.272L36.214 46.1157V35.4061L47.575 29.7516C48.0726 29.5029 48.451 29.0666 48.6269 28.5388C48.8028 28.0111 48.7619 27.435 48.5131 26.9374C48.2643 26.4399 47.828 26.0615 47.3003 25.8856C46.7725 25.7097 46.1965 25.7506 45.6989 25.9994L36.214 30.7679V23.7063C36.214 23.1535 35.9944 22.6232 35.6034 22.2323C35.2125 21.8414 34.6823 21.6217 34.1294 21.6217C33.5765 21.6217 33.0463 21.8414 32.6554 22.2323C32.2644 22.6232 32.0448 23.1535 32.0448 23.7063V37.0217L22.5599 32.2532C22.3135 32.13 22.0453 32.0565 21.7705 32.037C21.4958 32.0175 21.2199 32.0522 20.9585 32.1393C20.6972 32.2265 20.4556 32.3642 20.2475 32.5447C20.0394 32.7251 19.8689 32.9448 19.7457 33.1912C19.6225 33.4376 19.5491 33.7058 19.5296 33.9806C19.51 34.2554 19.5448 34.5313 19.6319 34.7926C19.719 35.0539 19.8567 35.2955 20.0372 35.5036C20.2177 35.7117 20.4374 35.8822 20.6838 36.0054L32.0448 41.6599V46.1157L31.8103 46.272C29.2987 47.9441 26.3319 48.7996 23.3156 48.7214C15.4723 48.513 9.08825 41.9465 9.11431 34.0772C9.13254 31.2964 9.94076 28.5781 11.4447 26.2391C12.9487 23.9 15.0866 22.0366 17.609 20.8661C18.5525 20.4263 19.303 19.6572 19.7197 18.7033C20.9135 15.8674 22.9175 13.4468 25.4807 11.7448C28.044 10.0427 31.0525 9.13477 34.1294 9.13477C37.2063 9.13477 40.2148 10.0427 42.7781 11.7448C45.3413 13.4468 47.3453 15.8674 48.5391 18.7033C48.9558 19.6572 49.7063 20.4263 50.6498 20.8661C53.1722 22.0366 55.3101 23.9 56.814 26.2391C58.318 28.5781 59.1263 31.2964 59.1445 34.0772C59.1705 41.9465 52.7865 48.513 44.9432 48.7214Z" fill="#6C93DE"/>
</g>
</svg>
