<svg width="96" height="17" viewBox="0 0 96 17" fill="none" xmlns="http://www.w3.org/2000/svg">
<path d="M8.09375 0.5625C8.21875 0.3125 8.375 0.15625 8.625 0.0625C8.875 0 9.09375 0 9.34375 0.0625C9.59375 0.15625 9.78125 0.3125 9.90625 0.5625L11.9375 4.6875L16.5 5.34375C16.75 5.40625 16.9688 5.53125 17.125 5.71875C17.2812 5.9375 17.3438 6.15625 17.3438 6.40625C17.3438 6.65625 17.25 6.875 17.0625 7.0625L13.75 10.2812L14.5312 14.8438C14.5625 15.0938 14.5 15.3438 14.375 15.5625C14.25 15.7812 14.0625 15.9062 13.8125 15.9688C13.5625 16.0312 13.3125 16 13.0938 15.875L9 13.75L4.90625 15.875C4.65625 16 4.4375 16.0312 4.1875 15.9688C3.9375 15.9062 3.71875 15.7812 3.59375 15.5625C3.46875 15.3438 3.40625 15.0938 3.46875 14.8438L4.25 10.2812L0.9375 7.0625C0.75 6.875 0.625 6.65625 0.625 6.40625C0.625 6.15625 0.6875 5.9375 0.84375 5.71875C1 5.53125 1.21875 5.40625 1.5 5.34375L6.0625 4.6875L8.09375 0.5625ZM27.6938 0.5625C27.8188 0.3125 27.975 0.15625 28.225 0.0625C28.475 0 28.6938 0 28.9438 0.0625C29.1938 0.15625 29.3813 0.3125 29.5063 0.5625L31.5375 4.6875L36.1 5.34375C36.35 5.40625 36.5688 5.53125 36.725 5.71875C36.8813 5.9375 36.9438 6.15625 36.9438 6.40625C36.9438 6.65625 36.85 6.875 36.6625 7.0625L33.35 10.2812L34.1313 14.8438C34.1625 15.0938 34.1 15.3438 33.975 15.5625C33.85 15.7812 33.6625 15.9062 33.4125 15.9688C33.1625 16.0312 32.9125 16 32.6938 15.875L28.6 13.75L24.5063 15.875C24.2563 16 24.0375 16.0312 23.7875 15.9688C23.5375 15.9062 23.3188 15.7812 23.1938 15.5625C23.0688 15.3438 23.0063 15.0938 23.0688 14.8438L23.85 10.2812L20.5375 7.0625C20.35 6.875 20.225 6.65625 20.225 6.40625C20.225 6.15625 20.2875 5.9375 20.4438 5.71875C20.6 5.53125 20.8188 5.40625 21.1 5.34375L25.6625 4.6875L27.6938 0.5625ZM47.2938 0.5625C47.4188 0.3125 47.575 0.15625 47.825 0.0625C48.075 0 48.2938 0 48.5438 0.0625C48.7938 0.15625 48.9813 0.3125 49.1063 0.5625L51.1375 4.6875L55.7 5.34375C55.95 5.40625 56.1688 5.53125 56.325 5.71875C56.4813 5.9375 56.5438 6.15625 56.5438 6.40625C56.5438 6.65625 56.45 6.875 56.2625 7.0625L52.95 10.2812L53.7313 14.8438C53.7625 15.0938 53.7 15.3438 53.575 15.5625C53.45 15.7812 53.2625 15.9062 53.0125 15.9688C52.7625 16.0312 52.5125 16 52.2938 15.875L48.2 13.75L44.1063 15.875C43.8563 16 43.6375 16.0312 43.3875 15.9688C43.1375 15.9062 42.9188 15.7812 42.7938 15.5625C42.6688 15.3438 42.6063 15.0938 42.6688 14.8438L43.45 10.2812L40.1375 7.0625C39.95 6.875 39.825 6.65625 39.825 6.40625C39.825 6.15625 39.8875 5.9375 40.0438 5.71875C40.2 5.53125 40.4188 5.40625 40.7 5.34375L45.2625 4.6875L47.2938 0.5625ZM66.8937 0.5625C67.0187 0.3125 67.175 0.15625 67.425 0.0625C67.675 0 67.8937 0 68.1437 0.0625C68.3937 0.15625 68.5812 0.3125 68.7062 0.5625L70.7375 4.6875L75.3 5.34375C75.55 5.40625 75.7687 5.53125 75.925 5.71875C76.0812 5.9375 76.1437 6.15625 76.1437 6.40625C76.1437 6.65625 76.05 6.875 75.8625 7.0625L72.55 10.2812L73.3312 14.8438C73.3625 15.0938 73.3 15.3438 73.175 15.5625C73.05 15.7812 72.8625 15.9062 72.6125 15.9688C72.3625 16.0312 72.1125 16 71.8937 15.875L67.8 13.75L63.7062 15.875C63.4562 16 63.2375 16.0312 62.9875 15.9688C62.7375 15.9062 62.5187 15.7812 62.3937 15.5625C62.2687 15.3438 62.2062 15.0938 62.2687 14.8438L63.05 10.2812L59.7375 7.0625C59.55 6.875 59.425 6.65625 59.425 6.40625C59.425 6.15625 59.4875 5.9375 59.6437 5.71875C59.8 5.53125 60.0187 5.40625 60.3 5.34375L64.8625 4.6875L66.8937 0.5625Z" fill="#F6C416"/>
<path d="M86.4938 0.5625C86.6188 0.3125 86.775 0.15625 87.025 0.0625C87.275 0 87.4938 0 87.7438 0.0625C87.9938 0.15625 88.1813 0.3125 88.3063 0.5625L90.3375 4.6875L94.9 5.34375C95.15 5.40625 95.3688 5.53125 95.525 5.71875C95.6813 5.9375 95.7438 6.15625 95.7438 6.40625C95.7438 6.65625 95.65 6.875 95.4625 7.0625L92.15 10.2812L92.9313 14.8438C92.9625 15.0938 92.9 15.3438 92.775 15.5625C92.65 15.7812 92.4625 15.9062 92.2125 15.9688C91.9625 16.0312 91.7125 16 91.4938 15.875L87.4 13.75L83.3063 15.875C83.0563 16 82.8375 16.0312 82.5875 15.9688C82.3375 15.9062 82.1188 15.7812 81.9938 15.5625C81.8688 15.3438 81.8063 15.0938 81.8688 14.8438L82.65 10.2812L79.3375 7.0625C79.15 6.875 79.025 6.65625 79.025 6.40625C79.025 6.15625 79.0875 5.9375 79.2438 5.71875C79.4 5.53125 79.6188 5.40625 79.9 5.34375L84.4625 4.6875L86.4938 0.5625Z" fill="#E4E4E4"/>
</svg>
